# xmcd
#
# Track frame offsets:
#	150
#	14082
#	45872
#	77702
#	108191
#	136423
#	166352
#	198040
#	210844
#	232100
#
# Disc length: 3437 seconds
#
# Revision: 1
# Processed by: cddbd v1.5.2PL0 Copyright (c) Steve Scherf et al.
# Submitted via: audiograbber 1.83.01
#
DISCID=760d6b0a
DTITLE=Lyliam de Chacón - Santo Rosario
DYEAR=2012
DGENRE=Vocal
TTITLE0=Virgen del Rosario
TTITLE1=Peticiones
TTITLE2=Misterio de Luz I
TTITLE3=Misterio de Luz II
TTITLE4=Misterio de Luz III
TTITLE5=Misterio de Luz IV
TTITLE6=Misterio de Luz V
TTITLE7=Salve
TTITLE8=Letanias
TTITLE9=Oraciones Finales
EXTD=
EXTT0=
EXTT1=
EXTT2=
EXTT3=
EXTT4=
EXTT5=
EXTT6=
EXTT7=
EXTT8=
EXTT9=
PLAYORDER=
